# xmcd CD database file
#
# Track frame offsets:
#	150
#	16684
#	42122
#	88303
#	129486
#	152902
#	177573
#	203667
#	228019
#
# Disc length: 3442 seconds
#
# Revision: 0
# Processed by: cddbd v1.5.1PL2 Copyright (c) Steve Scherf et al.
# Submitted via: cdripper 1.0.8
#
DISCID=690d7009
DTITLE=Linwood Taylor - Live At Colonial Seafood 1991
DYEAR=1991
DGENRE=Blues
TTITLE0=Waco Stomp
TTITLE1=Mr.Lucky
TTITLE2=Blues in D.C.
TTITLE3=Killing Floor
TTITLE4=Monkey's Uncle
TTITLE5=Hoochie Coochie Man
TTITLE6=I'm Ready
TTITLE7=Mustang Sally
TTITLE8=Dust My Broom
EXTD=YEAR: 1991
EXTT0=
EXTT1=
EXTT2=
EXTT3=
EXTT4=
EXTT5=
EXTT6=
EXTT7=
EXTT8=
PLAYORDER=
